<svg width="96" height="16" viewBox="0 0 96 16" fill="none" xmlns="http://www.w3.org/2000/svg">
<path d="M18.6352 15.7938H13.6016L5.71297 6.93579H15.1896C15.8645 6.93579 16.202 6.39985 16.202 5.32465C16.202 4.24945 15.8645 3.7135 15.1913 3.7135H3.7925V15.7921H0.0971222V0.0197754H15.4146C16.8272 0.0197754 17.9421 0.572263 18.7609 1.67558C19.5185 2.678 19.8973 3.8938 19.8973 5.32465C19.8973 6.75549 19.5185 7.97295 18.7609 8.97371C17.9421 10.0787 16.8272 10.6295 15.4146 10.6295H14.0019L18.6369 15.7921L18.6352 15.7938Z" fill="white"/>
<path d="M41.0143 10.7999C41.0143 12.2291 40.5131 13.4184 39.5106 14.3679C38.5082 15.3174 37.2891 15.7921 35.8566 15.7921H26.5851C25.1526 15.7921 23.9351 15.3174 22.9311 14.3679C21.9286 13.4184 21.4274 12.2291 21.4274 10.7999V5.01201C21.4274 3.58282 21.9286 2.39349 22.9311 1.444C23.9335 0.494518 25.1509 0.0197754 26.5851 0.0197754H35.8566C37.2891 0.0197754 38.5066 0.494518 39.5106 1.444C40.5131 2.39349 41.0143 3.58282 41.0143 5.01201V10.7999ZM37.3189 10.7867V5.02525C37.3189 4.15185 36.8293 3.7135 35.8483 3.7135H26.5934C25.6124 3.7135 25.1228 4.1502 25.1228 5.02525V10.7867C25.1228 11.6601 25.6124 12.0984 26.5934 12.0984H35.8483C36.8293 12.0984 37.3189 11.6617 37.3189 10.7867Z" fill="white"/>
<path d="M58.3531 15.7938H42.546V0.0197754H46.2414V12.0984H58.3548V15.7938H58.3531Z" fill="white"/>
<path d="M76.739 3.7135H63.5819V6.05744H75.8789V9.75282H63.5819V12.0968H76.7076V15.7921H59.8865V0.0197754H76.7374V3.71515L76.739 3.7135Z" fill="white"/>
<path d="M95.6477 15.7938H83.4317C81.9992 15.7938 80.7818 15.3191 79.7794 14.3696C78.7769 13.4201 78.2757 12.2308 78.2757 10.8016V5.01372C78.2757 3.58453 78.7769 2.3952 79.7794 1.44571C80.7818 0.496227 81.9992 0.0214844 83.4317 0.0214844H95.6477V3.71686H83.4417C82.4607 3.71686 81.9695 4.15356 81.9695 5.02861V10.79C81.9695 11.6634 82.4607 12.1018 83.4417 12.1018H95.6477V15.7971V15.7938Z" fill="white"/>
</svg>
