<svg width="96" height="16" viewBox="0 0 96 16" fill="none" xmlns="http://www.w3.org/2000/svg">
<g clip-path="url(#clip0_411_112)">
<path d="M18.6352 15.7937H13.6016L5.71297 6.93571H15.1896C15.8645 6.93571 16.202 6.39976 16.202 5.32456C16.202 4.24936 15.8645 3.71342 15.1913 3.71342H3.7925V15.792H0.0971222V0.0196915H15.4146C16.8272 0.0196915 17.9421 0.572179 18.7609 1.6755C19.5185 2.67792 19.8973 3.89372 19.8973 5.32456C19.8973 6.75541 19.5185 7.97286 18.7609 8.97363C17.9421 10.0786 16.8272 10.6294 15.4146 10.6294H14.0019L18.6369 15.792L18.6352 15.7937Z" fill="#333333"/>
<path d="M41.0143 10.7998C41.0143 12.229 40.5131 13.4183 39.5106 14.3678C38.5082 15.3173 37.2891 15.7921 35.8566 15.7921H26.5851C25.1526 15.7921 23.9351 15.3173 22.9311 14.3678C21.9286 13.4183 21.4274 12.229 21.4274 10.7998V5.01193C21.4274 3.58274 21.9286 2.3934 22.9311 1.44392C23.9335 0.494434 25.1509 0.0196915 26.5851 0.0196915H35.8566C37.2891 0.0196915 38.5066 0.494434 39.5106 1.44392C40.5131 2.3934 41.0143 3.58274 41.0143 5.01193V10.7998ZM37.3189 10.7866V5.02516C37.3189 4.15177 36.8293 3.71342 35.8483 3.71342H26.5934C25.6124 3.71342 25.1228 4.15011 25.1228 5.02516V10.7866C25.1228 11.66 25.6124 12.0983 26.5934 12.0983H35.8483C36.8293 12.0983 37.3189 11.6616 37.3189 10.7866Z" fill="#333333"/>
<path d="M58.3531 15.7937H42.546V0.0196915H46.2414V12.0983H58.3548V15.7937H58.3531Z" fill="#333333"/>
<path d="M76.739 3.71342H63.5819V6.05735H75.8789V9.75273H63.5819V12.0967H76.7076V15.7921H59.8865V0.0196915H76.7374V3.71507L76.739 3.71342Z" fill="#333333"/>
<path d="M95.6477 15.7937H83.4317C81.9992 15.7937 80.7818 15.319 79.7794 14.3695C78.7769 13.42 78.2757 12.2307 78.2757 10.8015V5.01358C78.2757 3.58439 78.7769 2.39506 79.7794 1.44557C80.7818 0.496089 81.9992 0.021347 83.4317 0.021347H95.6477V3.71673H83.4417C82.4607 3.71673 81.9695 4.15342 81.9695 5.02847V10.7899C81.9695 11.6633 82.4607 12.1016 83.4417 12.1016H95.6477V15.797V15.7937Z" fill="#333333"/>
</g>
<defs>
<clipPath id="clip0_411_112">
<rect width="95.7538" height="16" fill="white"/>
</clipPath>
</defs>
</svg>
