<svg width="14" height="14" viewBox="0 0 14 14" fill="none" xmlns="http://www.w3.org/2000/svg">
<path d="M3.125 13.9922H0.21875V4.64844H3.125V13.9922ZM1.65625 3.39844C0.75 3.39844 0 2.61719 0 1.67969C0 1.08594 0.3125 0.523438 0.8125 0.242188C1.34375 -0.0703125 2 -0.0703125 2.5 0.242188C3.03125 0.523438 3.34375 1.08594 3.34375 1.67969C3.34375 2.61719 2.59375 3.39844 1.65625 3.39844ZM13.9688 13.9922H11.0938V9.46094C11.0938 8.36719 11.0625 6.99219 9.5625 6.99219C8.0625 6.99219 7.84375 8.14844 7.84375 9.36719V13.9922H4.9375V4.64844H7.71875V5.92969H7.75C8.15625 5.21094 9.09375 4.42969 10.5 4.42969C13.4375 4.42969 14 6.36719 14 8.86719V13.9922H13.9688Z" fill="white"/>
</svg>
