<svg width="18" height="12" viewBox="0 0 18 12" fill="none" xmlns="http://www.w3.org/2000/svg">
<path d="M17.2188 1.90625C17.5938 3.21875 17.5938 6.03125 17.5938 6.03125C17.5938 6.03125 17.5938 8.8125 17.2188 10.1562C17.0312 10.9062 16.4375 11.4688 15.7188 11.6562C14.375 12 9.0625 12 9.0625 12C9.0625 12 3.71875 12 2.375 11.6562C1.65625 11.4688 1.0625 10.9062 0.875 10.1562C0.5 8.8125 0.5 6.03125 0.5 6.03125C0.5 6.03125 0.5 3.21875 0.875 1.90625C1.0625 1.15625 1.65625 0.5625 2.375 0.375C3.71875 0 9.0625 0 9.0625 0C9.0625 0 14.375 0 15.7188 0.375C16.4375 0.5625 17.0312 1.15625 17.2188 1.90625ZM7.3125 8.5625L11.75 6.03125L7.3125 3.5V8.5625Z" fill="white"/>
</svg>
