<svg width="17" height="17" viewBox="0 0 17 17" fill="none" xmlns="http://www.w3.org/2000/svg">
<path d="M8.65625 1.29879C8.53125 1.23571 8.4375 1.23571 8.3125 1.29879L1.875 3.66449L8.5 6.28253L15.0938 3.66449L8.65625 1.29879ZM1.5 12.3387C1.5 12.5595 1.625 12.7488 1.8125 12.8119L8 15.1145V7.16572L1.5 4.61077V12.3387ZM9 15.1145L15.1563 12.8119C15.3438 12.7488 15.5 12.5595 15.5 12.3387V4.61077L9 7.16572V15.0829V15.1145ZM7.96875 0.320971C8.3125 0.226343 8.65625 0.226343 9 0.320971L15.5 2.74975C16.0938 2.97055 16.5 3.53832 16.5 4.16917V12.3387C16.5 12.9696 16.0938 13.5373 15.5 13.7581L9 16.1554C8.65625 16.2815 8.3125 16.2815 7.96875 16.1554L1.46875 13.7581C0.875 13.5373 0.5 12.9696 0.5 12.3387V4.16917C0.5 3.53832 0.875 2.97055 1.46875 2.74975L7.96875 0.320971Z" fill="#262626"/>
</svg>
