<svg width="14" height="16" viewBox="0 0 14 16" fill="none" xmlns="http://www.w3.org/2000/svg">
<path fill-rule="evenodd" clip-rule="evenodd" d="M2.33333 3.16662C1.8731 3.16662 1.5 3.53971 1.5 3.99995V13.3333C1.5 13.7935 1.8731 14.1666 2.33333 14.1666H11.6667C12.1269 14.1666 12.5 13.7935 12.5 13.3333V3.99995C12.5 3.53971 12.1269 3.16662 11.6667 3.16662H2.33333ZM0.5 3.99995C0.5 2.98743 1.32081 2.16662 2.33333 2.16662H11.6667C12.6792 2.16662 13.5 2.98743 13.5 3.99995V13.3333C13.5 14.3458 12.6792 15.1666 11.6667 15.1666H2.33333C1.32081 15.1666 0.5 14.3458 0.5 13.3333V3.99995Z" fill="#74AF28"/>
<path fill-rule="evenodd" clip-rule="evenodd" d="M9.66667 0.833382C9.94281 0.833382 10.1667 1.05724 10.1667 1.33338V4.00005C10.1667 4.27619 9.94281 4.50005 9.66667 4.50005C9.39052 4.50005 9.16667 4.27619 9.16667 4.00005V1.33338C9.16667 1.05724 9.39052 0.833382 9.66667 0.833382Z" fill="#74AF28"/>
<path fill-rule="evenodd" clip-rule="evenodd" d="M4.33333 0.833382C4.60948 0.833382 4.83333 1.05724 4.83333 1.33338V4.00005C4.83333 4.27619 4.60948 4.50005 4.33333 4.50005C4.05719 4.50005 3.83333 4.27619 3.83333 4.00005V1.33338C3.83333 1.05724 4.05719 0.833382 4.33333 0.833382Z" fill="#74AF28"/>
<path fill-rule="evenodd" clip-rule="evenodd" d="M0.5 6.66662C0.5 6.39047 0.723858 6.16662 1 6.16662H13C13.2761 6.16662 13.5 6.39047 13.5 6.66662C13.5 6.94276 13.2761 7.16662 13 7.16662H1C0.723858 7.16662 0.5 6.94276 0.5 6.66662Z" fill="#74AF28"/>
</svg>
