<svg width="17" height="17" viewBox="0 0 17 17" fill="none" xmlns="http://www.w3.org/2000/svg">
<path d="M5.29993 5.55005H8.49993C8.79993 5.55005 8.99993 5.35005 8.99993 5.05005C8.99993 4.75005 8.79993 4.55005 8.49993 4.55005H5.29993C4.99993 4.55005 4.79993 4.75005 4.79993 5.05005C4.79993 5.35005 4.99993 5.55005 5.29993 5.55005Z" fill="black"/>
<path d="M11.6999 10.95H5.29993C4.99993 10.95 4.79993 11.15 4.79993 11.45C4.79993 11.75 4.99993 11.95 5.29993 11.95H11.6999C11.9999 11.95 12.1999 11.75 12.1999 11.45C12.1999 11.15 11.9999 10.95 11.6999 10.95Z" fill="black"/>
<path d="M13.9 4.35L11.3 1.75C11 1.45 10.6 1.25 10.2 1.25H4.19998C3.29998 1.25 2.59998 1.95 2.59998 2.85V13.55C2.59998 14.45 3.29998 15.15 4.19998 15.15H12.7C13.6 15.15 14.3 14.45 14.3 13.55V5.45C14.4 5.05 14.2 4.65 13.9 4.35ZM13.3 13.55C13.3 13.85 13.1 14.05 12.8 14.05H4.19998C3.89998 14.05 3.69998 13.85 3.69998 13.55V2.95C3.69998 2.65 3.89998 2.45 4.19998 2.45H10.2C10.3 2.45 10.5 2.55 10.6 2.65L13.2 5.25C13.3 5.35 13.4 5.45 13.4 5.65V13.55H13.3Z" fill="black"/>
<path d="M11.6999 7.75H5.29993C4.99993 7.75 4.79993 7.95 4.79993 8.25C4.79993 8.55 4.99993 8.75 5.29993 8.75H11.6999C11.9999 8.75 12.1999 8.55 12.1999 8.25C12.1999 7.95 11.9999 7.75 11.6999 7.75Z" fill="black"/>
</svg>
