<svg width="13" height="16" viewBox="0 0 13 16" fill="none" xmlns="http://www.w3.org/2000/svg">
<path d="M12.5 10.6667V5.33335C12.4998 5.09953 12.438 4.86989 12.321 4.66746C12.204 4.46503 12.0358 4.29692 11.8333 4.18002L7.16667 1.51335C6.96397 1.39633 6.73405 1.33472 6.5 1.33472C6.26595 1.33472 6.03603 1.39633 5.83333 1.51335L1.16667 4.18002C0.964175 4.29692 0.795987 4.46503 0.678974 4.66746C0.561962 4.86989 0.50024 5.09953 0.5 5.33335V10.6667C0.50024 10.9005 0.561962 11.1301 0.678974 11.3326C0.795987 11.535 0.964175 11.7031 1.16667 11.82L5.83333 14.4867C6.03603 14.6037 6.26595 14.6653 6.5 14.6653C6.73405 14.6653 6.96397 14.6037 7.16667 14.4867L11.8333 11.82C12.0358 11.7031 12.204 11.535 12.321 11.3326C12.438 11.1301 12.4998 10.9005 12.5 10.6667Z" stroke="#262626" stroke-linecap="round" stroke-linejoin="round"/>
</svg>
