<svg width="17" height="17" viewBox="0 0 17 17" fill="none" xmlns="http://www.w3.org/2000/svg">
<g clip-path="url(#clip0_3_1262)">
<path d="M8.82817 2.03906C8.60942 1.92969 8.36333 1.92969 8.14458 2.03906L3.30474 4.08984C3.00395 4.19922 2.7852 4.5 2.81255 4.82812C2.81255 7.39844 3.87895 11.9375 8.14458 13.9883C8.36333 14.0977 8.60942 14.0977 8.82817 13.9883C13.0938 11.9375 14.1602 7.39844 14.1875 4.82812C14.1875 4.5 13.9688 4.19922 13.668 4.08984L8.82817 2.03906ZM7.81645 1.21875C8.25395 1.02734 8.74614 1.02734 9.18364 1.21875L13.9961 3.26953C14.5977 3.54297 15.0625 4.11719 15.0625 4.82812C15.0352 7.5625 13.9141 12.5117 9.21099 14.7812C8.74614 15 8.22661 15 7.76177 14.7812C3.05864 12.5117 1.93755 7.5625 1.93755 4.82812C1.9102 4.11719 2.37505 3.54297 2.97661 3.26953L7.81645 1.21875Z" fill="#262626"/>
<path fill-rule="evenodd" clip-rule="evenodd" d="M8.78336 2.12854C8.59276 2.03324 8.37981 2.03324 8.18921 2.12854L8.18358 2.13135L3.33887 4.18398C3.07556 4.27973 2.88893 4.5417 2.91211 4.81985L2.9128 4.82815C2.9128 7.3815 3.9727 11.8717 8.18782 13.8982L8.18922 13.8989C8.37981 13.9942 8.59276 13.9942 8.78336 13.8989L8.78475 13.8982C12.9996 11.8718 14.0601 7.38212 14.0875 4.82765C14.0872 4.54286 13.8959 4.27918 13.6338 4.18385L13.6289 4.18207L8.78336 2.12854ZM14.1875 4.82815C14.1601 7.39847 13.0937 11.9375 8.82808 13.9883C8.60933 14.0977 8.36324 14.0977 8.14449 13.9883C3.87886 11.9375 2.81246 7.39847 2.81246 4.82815C2.78511 4.50003 3.00386 4.19925 3.30464 4.08987L8.14449 2.03909C8.36324 1.92972 8.60933 1.92972 8.82808 2.03909L13.6679 4.08987C13.9687 4.19925 14.1875 4.50003 14.1875 4.82815ZM14.0374 3.17852C14.6671 3.46474 15.1625 4.0703 15.1625 4.82815C15.1349 7.57846 14.0079 12.5775 9.25436 14.8713C8.76254 15.1028 8.21091 15.1032 7.7191 14.8718C2.96664 12.5784 1.83798 7.58173 1.83746 4.83005C1.80911 4.07006 2.30651 3.46427 2.93514 3.17852L2.93749 3.17746L7.77628 1.12716C7.7761 1.12724 7.77646 1.12709 7.77628 1.12716C8.23905 0.924877 8.76043 0.924657 9.22319 1.12697C9.22304 1.1269 9.22334 1.12703 9.22319 1.12697L14.0374 3.17852ZM9.18355 1.21878C8.74605 1.02737 8.25386 1.02737 7.81636 1.21878L2.97652 3.26956C2.37496 3.543 1.91011 4.11722 1.93746 4.82815C1.93746 7.56253 3.05855 12.5117 7.76168 14.7813C8.22652 15 8.74605 15 9.2109 14.7813C13.914 12.5117 15.0351 7.56253 15.0625 4.82815C15.0625 4.11722 14.5976 3.543 13.9961 3.26956L9.18355 1.21878Z" fill="#262626"/>
</g>
<defs>
<clipPath id="clip0_3_1262">
<rect width="16" height="16" fill="white" transform="translate(0.5 0.25)"/>
</clipPath>
</defs>
</svg>
