<svg width="16" height="14" viewBox="0 0 16 14" fill="none" xmlns="http://www.w3.org/2000/svg">
<path d="M6.3125 1.21875V4.125H15.0312V2.1875C15.0312 1.67285 14.5771 1.21875 14.0625 1.21875H6.3125ZM5.34375 1.21875H2.4375C1.89258 1.21875 1.46875 1.67285 1.46875 2.1875V4.125H5.34375V1.21875ZM1.46875 5.09375V8.96875H5.34375V5.09375H1.46875ZM1.46875 9.9375V11.875C1.46875 12.4199 1.89258 12.8438 2.4375 12.8438H5.34375V9.9375H1.46875ZM6.3125 12.8438H14.0625C14.5771 12.8438 15.0312 12.4199 15.0312 11.875V9.9375H6.3125V12.8438ZM15.0312 8.96875V5.09375H6.3125V8.96875H15.0312ZM0.5 2.1875C0.5 1.12793 1.34766 0.25 2.4375 0.25H14.0625C15.1221 0.25 16 1.12793 16 2.1875V11.875C16 12.9648 15.1221 13.8125 14.0625 13.8125H2.4375C1.34766 13.8125 0.5 12.9648 0.5 11.875V2.1875Z" fill="#262626"/>
</svg>
