<svg width="14" height="14" viewBox="0 0 14 14" fill="none" xmlns="http://www.w3.org/2000/svg">
<path fill-rule="evenodd" clip-rule="evenodd" d="M9.88665 1.15629C9.44453 1.06304 8.98613 1.05577 8.53689 1.13762C7.83694 1.26516 7.19248 1.60298 6.68939 2.10606C6.18631 2.60915 5.84849 3.25361 5.72096 3.95356C5.59342 4.6535 5.68224 5.3757 5.97556 6.02389C6.06136 6.2135 6.02074 6.43642 5.87358 6.58358L1.26691 11.1902C1.09546 11.3617 0.999146 11.5942 0.999146 11.8367C0.999146 12.0792 1.09546 12.3117 1.26691 12.4831C1.43836 12.6546 1.67089 12.7509 1.91336 12.7509C2.15582 12.7509 2.38836 12.6546 2.55981 12.4831L7.16647 7.87647C7.31363 7.72932 7.53656 7.6887 7.72616 7.7745C8.37436 8.06782 9.09655 8.15663 9.7965 8.0291C10.4964 7.90157 11.1409 7.56375 11.644 7.06066C12.1471 6.55757 12.4849 5.91311 12.6124 5.21317C12.6943 4.76393 12.687 4.30552 12.5938 3.8634L10.65 5.80712C10.432 6.02088 10.1387 6.1406 9.83336 6.1406C9.52798 6.1406 9.23478 6.02086 9.01669 5.8071L9.01312 5.8036L7.94294 4.73338C7.72917 4.5153 7.60945 4.22207 7.60945 3.91669C7.60945 3.61131 7.72919 3.31811 7.94295 3.10003L7.94646 3.09646L9.88665 1.15629ZM8.35764 0.153821C9.25757 -0.0101492 10.1861 0.104038 11.0195 0.481164C11.169 0.548834 11.2758 0.685589 11.3053 0.847068C11.3347 1.00855 11.283 1.17418 11.1669 1.29025L8.65594 3.80122C8.62613 3.83225 8.60945 3.87363 8.60945 3.91669C8.60945 3.95977 8.62613 4.00114 8.65594 4.03217L9.71787 5.0941C9.7489 5.12392 9.79028 5.1406 9.83336 5.1406C9.87643 5.1406 9.9178 5.12393 9.94883 5.09412L12.4598 2.58314C12.5759 2.46708 12.7415 2.41537 12.903 2.44479C13.0645 2.47421 13.2012 2.58102 13.2689 2.73056C13.646 3.56395 13.7602 4.49248 13.5962 5.39242C13.4323 6.29235 12.9979 7.12094 12.3511 7.76777C11.7043 8.41459 10.8757 8.84893 9.97575 9.0129C9.19137 9.15582 8.38527 9.08742 7.63937 8.81779L3.26691 13.1902C2.90793 13.5492 2.42104 13.7509 1.91336 13.7509C1.40568 13.7509 0.91879 13.5492 0.559806 13.1902C0.200821 12.8313 -0.000854492 12.3444 -0.000854492 11.8367C-0.000854492 11.329 0.200821 10.8421 0.559806 10.4831L4.93226 6.11069C4.66263 5.36479 4.59424 4.55868 4.73715 3.77431C4.90112 2.87437 5.33546 2.04578 5.98229 1.39896C6.62911 0.75213 7.4577 0.317791 8.35764 0.153821Z" fill="#262626"/>
</svg>
