<svg width="17" height="16" viewBox="0 0 17 16" fill="none" xmlns="http://www.w3.org/2000/svg">
<path fill-rule="evenodd" clip-rule="evenodd" d="M9.36577 0.874751C9.56938 0.963136 9.69034 1.17517 9.66281 1.39542L9.0664 6.16674H14.5C14.694 6.16674 14.8705 6.27897 14.9528 6.45466C15.0351 6.63035 15.0083 6.83779 14.8841 6.98683L8.21745 14.9868C8.07535 15.1573 7.83785 15.2138 7.63424 15.1254C7.43064 15.037 7.30967 14.825 7.3372 14.6047L7.93362 9.8334H2.50001C2.306 9.8334 2.1295 9.72117 2.04721 9.54548C1.96492 9.36979 1.99169 9.16235 2.1159 9.01331L8.78256 1.01331C8.92466 0.842793 9.16216 0.786367 9.36577 0.874751ZM3.56753 8.8334H8.50001C8.64342 8.8334 8.77993 8.89499 8.87485 9.0025C8.96976 9.11002 9.01393 9.25311 8.99615 9.39542L8.54101 13.0365L13.4325 7.16674H8.50001C8.35659 7.16674 8.22008 7.10515 8.12517 6.99764C8.03025 6.89012 7.98608 6.74703 8.00387 6.60472L8.459 2.96363L3.56753 8.8334Z" fill="#262626"/>
</svg>
